<svg width="128" height="128" viewBox="0 0 128 128" xmlns="http://www.w3.org/2000/svg">
  <!-- Background -->
  <rect width="128" height="128" rx="20" fill="#667eea"/>
  <rect x="4" y="4" width="120" height="120" rx="16" fill="url(#gradient)"/>

  <defs>
    <linearGradient id="gradient" x1="0%" y1="0%" x2="100%" y2="100%">
      <stop offset="0%" style="stop-color:#667eea"/>
      <stop offset="50%" style="stop-color:#764ba2"/>
      <stop offset="100%" style="stop-color:#f093fb"/>
    </linearGradient>
  </defs>

  <!-- CSV Icon -->
  <g transform="translate(25, 25)">
    <rect x="0" y="0" width="25" height="20" rx="3" fill="rgba(255,255,255,0.9)" stroke="#333" stroke-width="1"/>
    <!-- Table lines -->
    <line x1="0" y1="8" x2="25" y2="8" stroke="#333" stroke-width="0.5"/>
    <line x1="0" y1="14" x2="25" y2="14" stroke="#333" stroke-width="0.5"/>
    <line x1="8" y1="0" x2="8" y2="20" stroke="#333" stroke-width="0.5"/>
    <line x1="16" y1="0" x2="16" y2="20" stroke="#333" stroke-width="0.5"/>
    <text x="12.5" y="6" text-anchor="middle" fill="#333" font-family="Arial, sans-serif" font-size="4" font-weight="bold">CSV</text>
  </g>

  <!-- Arrow -->
  <g transform="translate(64, 45)">
    <path d="M 0 0 L 15 0" stroke="white" stroke-width="2" marker-end="url(#arrowhead)"/>
  </g>

  <!-- JSON Icon -->
  <g transform="translate(85, 25)">
    <rect x="0" y="0" width="18" height="20" rx="2" fill="rgba(255,255,255,0.9)" stroke="#333" stroke-width="1"/>
    <!-- Curly braces -->
    <text x="9" y="7" text-anchor="middle" fill="#333" font-family="monospace" font-size="6" font-weight="bold">{</text>
    <text x="9" y="15" text-anchor="middle" fill="#333" font-family="monospace" font-size="6" font-weight="bold">}</text>
    <text x="9" y="12" text-anchor="middle" fill="#333" font-family="Arial, sans-serif" font-size="3">JSON</text>
  </g>

  <!-- SQL Icon -->
  <g transform="translate(55, 55)">
    <rect x="0" y="0" width="18" height="15" rx="2" fill="rgba(255,255,255,0.9)" stroke="#333" stroke-width="1"/>
    <text x="9" y="6" text-anchor="middle" fill="#333" font-family="Arial, sans-serif" font-size="4" font-weight="bold">SQL</text>
    <text x="9" y="12" text-anchor="middle" fill="#333" font-family="monospace" font-size="3">DB</text>
  </g>

  <!-- Arrow marker -->
  <defs>
    <marker id="arrowhead" markerWidth="6" markerHeight="4" refX="5" refY="2" orient="auto">
      <polygon points="0 0, 6 2, 0 4" fill="white"/>
    </marker>
  </defs>

  <!-- Decorative elements -->
  <circle cx="20" cy="20" r="3" fill="rgba(255,255,255,0.3)"/>
  <circle cx="108" cy="108" r="4" fill="rgba(255,255,255,0.2)"/>
</svg>
